<mxfile host="app.diagrams.net" modified="2020-12-28T03:16:08.166Z" agent="5.0 (Windows NT 10.0; Win64; x64) AppleWebKit/537.36 (KHTML, like Gecko) Chrome/87.0.4280.88 Safari/537.36 Edg/87.0.664.66" etag="p_vSirLuwCx5NdTMbXvF" version="13.10.9" type="github">
  <diagram id="VK8Ccuj7563UnQeUwwhE" name="Page-1">
    <mxGraphModel dx="1422" dy="762" grid="1" gridSize="10" guides="1" tooltips="1" connect="1" arrows="1" fold="1" page="1" pageScale="1" pageWidth="827" pageHeight="1169" math="0" shadow="0">
      <root>
        <mxCell id="0" />
        <mxCell id="1" parent="0" />
        <mxCell id="GHGKRmU3qR_QKKOwh8lX-17" style="edgeStyle=orthogonalEdgeStyle;curved=1;orthogonalLoop=1;jettySize=auto;html=1;exitX=1;exitY=0.3333333333333333;exitDx=0;exitDy=0;exitPerimeter=0;entryX=0;entryY=0.3333333333333333;entryDx=0;entryDy=0;entryPerimeter=0;startArrow=classic;startFill=1;" parent="1" source="GHGKRmU3qR_QKKOwh8lX-1" target="GHGKRmU3qR_QKKOwh8lX-2" edge="1">
          <mxGeometry relative="1" as="geometry" />
        </mxCell>
        <mxCell id="GHGKRmU3qR_QKKOwh8lX-1" value="Actor" style="shape=umlActor;verticalLabelPosition=bottom;labelBackgroundColor=#ffffff;verticalAlign=top;html=1;outlineConnect=0;" parent="1" vertex="1">
          <mxGeometry x="35" y="315.5" width="30" height="60" as="geometry" />
        </mxCell>
        <mxCell id="GHGKRmU3qR_QKKOwh8lX-20" style="edgeStyle=orthogonalEdgeStyle;curved=1;orthogonalLoop=1;jettySize=auto;html=1;exitX=1;exitY=0.3333333333333333;exitDx=0;exitDy=0;exitPerimeter=0;entryX=0;entryY=0.3333333333333333;entryDx=0;entryDy=0;entryPerimeter=0;startArrow=classic;startFill=1;" parent="1" source="GHGKRmU3qR_QKKOwh8lX-2" target="GHGKRmU3qR_QKKOwh8lX-3" edge="1">
          <mxGeometry relative="1" as="geometry" />
        </mxCell>
        <mxCell id="GHGKRmU3qR_QKKOwh8lX-2" value="Actor" style="shape=umlActor;verticalLabelPosition=bottom;labelBackgroundColor=#ffffff;verticalAlign=top;html=1;outlineConnect=0;" parent="1" vertex="1">
          <mxGeometry x="250" y="203" width="30" height="60" as="geometry" />
        </mxCell>
        <mxCell id="GHGKRmU3qR_QKKOwh8lX-13" style="edgeStyle=orthogonalEdgeStyle;orthogonalLoop=1;jettySize=auto;html=1;exitX=1;exitY=0.3333333333333333;exitDx=0;exitDy=0;exitPerimeter=0;curved=1;startArrow=classic;startFill=1;" parent="1" source="GHGKRmU3qR_QKKOwh8lX-3" edge="1">
          <mxGeometry relative="1" as="geometry">
            <mxPoint x="790" y="300" as="targetPoint" />
          </mxGeometry>
        </mxCell>
        <mxCell id="GHGKRmU3qR_QKKOwh8lX-3" value="Actor" style="shape=umlActor;verticalLabelPosition=bottom;labelBackgroundColor=#ffffff;verticalAlign=top;html=1;outlineConnect=0;" parent="1" vertex="1">
          <mxGeometry x="500" y="203" width="30" height="60" as="geometry" />
        </mxCell>
        <mxCell id="GHGKRmU3qR_QKKOwh8lX-28" style="edgeStyle=orthogonalEdgeStyle;curved=1;orthogonalLoop=1;jettySize=auto;html=1;exitX=1;exitY=0.3333333333333333;exitDx=0;exitDy=0;exitPerimeter=0;entryX=0;entryY=0.3333333333333333;entryDx=0;entryDy=0;entryPerimeter=0;startArrow=classic;startFill=1;" parent="1" source="GHGKRmU3qR_QKKOwh8lX-4" target="GHGKRmU3qR_QKKOwh8lX-24" edge="1">
          <mxGeometry relative="1" as="geometry" />
        </mxCell>
        <mxCell id="GHGKRmU3qR_QKKOwh8lX-4" value="Actor" style="shape=umlActor;verticalLabelPosition=bottom;labelBackgroundColor=#ffffff;verticalAlign=top;html=1;outlineConnect=0;" parent="1" vertex="1">
          <mxGeometry x="720" y="344.5" width="30" height="60" as="geometry" />
        </mxCell>
        <mxCell id="GHGKRmU3qR_QKKOwh8lX-7" value="任务机" style="text;html=1;align=center;verticalAlign=middle;resizable=0;points=[];autosize=1;" parent="1" vertex="1">
          <mxGeometry x="20" y="404.5" width="50" height="20" as="geometry" />
        </mxCell>
        <mxCell id="GHGKRmU3qR_QKKOwh8lX-8" value="中继机1" style="text;html=1;align=center;verticalAlign=middle;resizable=0;points=[];autosize=1;" parent="1" vertex="1">
          <mxGeometry x="235" y="180" width="60" height="20" as="geometry" />
        </mxCell>
        <mxCell id="GHGKRmU3qR_QKKOwh8lX-9" value="中继机2" style="text;html=1;align=center;verticalAlign=middle;resizable=0;points=[];autosize=1;" parent="1" vertex="1">
          <mxGeometry x="485" y="183" width="60" height="20" as="geometry" />
        </mxCell>
        <mxCell id="GHGKRmU3qR_QKKOwh8lX-14" value="200km" style="text;html=1;align=center;verticalAlign=middle;resizable=0;points=[];autosize=1;" parent="1" vertex="1">
          <mxGeometry x="626" y="253" width="50" height="20" as="geometry" />
        </mxCell>
        <mxCell id="GHGKRmU3qR_QKKOwh8lX-16" value="1440" style="text;html=1;align=center;verticalAlign=middle;resizable=0;points=[];autosize=1;" parent="1" vertex="1">
          <mxGeometry x="30" y="290" width="40" height="20" as="geometry" />
        </mxCell>
        <mxCell id="GHGKRmU3qR_QKKOwh8lX-18" value="100km" style="text;html=1;align=center;verticalAlign=middle;resizable=0;points=[];autosize=1;" parent="1" vertex="1">
          <mxGeometry x="115" y="240" width="50" height="20" as="geometry" />
        </mxCell>
        <mxCell id="GHGKRmU3qR_QKKOwh8lX-21" value="150km" style="text;html=1;align=center;verticalAlign=middle;resizable=0;points=[];autosize=1;" parent="1" vertex="1">
          <mxGeometry x="357" y="189" width="50" height="20" as="geometry" />
        </mxCell>
        <mxCell id="GHGKRmU3qR_QKKOwh8lX-22" value="1440，10W+1370 10W" style="text;html=1;align=center;verticalAlign=middle;resizable=0;points=[];autosize=1;" parent="1" vertex="1">
          <mxGeometry x="172" y="152" width="140" height="20" as="geometry" />
        </mxCell>
        <mxCell id="GHGKRmU3qR_QKKOwh8lX-23" value="1370，10W+1405 10W" style="text;html=1;align=center;verticalAlign=middle;resizable=0;points=[];autosize=1;" parent="1" vertex="1">
          <mxGeometry x="445" y="152" width="140" height="20" as="geometry" />
        </mxCell>
        <mxCell id="sA9kVy5kCW5AGEnNzR2p-3" style="edgeStyle=orthogonalEdgeStyle;rounded=0;orthogonalLoop=1;jettySize=auto;html=1;exitX=1;exitY=0.3333333333333333;exitDx=0;exitDy=0;exitPerimeter=0;entryX=0;entryY=0.3333333333333333;entryDx=0;entryDy=0;entryPerimeter=0;startArrow=classic;startFill=1;" parent="1" source="GHGKRmU3qR_QKKOwh8lX-24" target="sA9kVy5kCW5AGEnNzR2p-2" edge="1">
          <mxGeometry relative="1" as="geometry" />
        </mxCell>
        <mxCell id="GHGKRmU3qR_QKKOwh8lX-24" value="Actor" style="shape=umlActor;verticalLabelPosition=bottom;labelBackgroundColor=#ffffff;verticalAlign=top;html=1;outlineConnect=0;" parent="1" vertex="1">
          <mxGeometry x="800" y="344.5" width="30" height="60" as="geometry" />
        </mxCell>
        <mxCell id="GHGKRmU3qR_QKKOwh8lX-37" value="3km&amp;nbsp;" style="text;html=1;align=center;verticalAlign=middle;resizable=0;points=[];autosize=1;" parent="1" vertex="1">
          <mxGeometry x="491" y="124" width="40" height="20" as="geometry" />
        </mxCell>
        <mxCell id="GHGKRmU3qR_QKKOwh8lX-38" value="1km" style="text;html=1;align=center;verticalAlign=middle;resizable=0;points=[];autosize=1;" parent="1" vertex="1">
          <mxGeometry x="240" y="125" width="40" height="20" as="geometry" />
        </mxCell>
        <mxCell id="GHGKRmU3qR_QKKOwh8lX-39" value="0-500m" style="text;html=1;align=center;verticalAlign=middle;resizable=0;points=[];autosize=1;" parent="1" vertex="1">
          <mxGeometry x="15" y="263" width="60" height="20" as="geometry" />
        </mxCell>
        <mxCell id="JofrSo5SHJimZ4TlP-w2-3" value="1440" style="text;html=1;align=center;verticalAlign=middle;resizable=0;points=[];autosize=1;" parent="1" vertex="1">
          <mxGeometry x="130" y="310" width="40" height="20" as="geometry" />
        </mxCell>
        <mxCell id="JofrSo5SHJimZ4TlP-w2-4" value="1370" style="text;html=1;align=center;verticalAlign=middle;resizable=0;points=[];autosize=1;" parent="1" vertex="1">
          <mxGeometry x="340" y="230" width="40" height="20" as="geometry" />
        </mxCell>
        <mxCell id="sA9kVy5kCW5AGEnNzR2p-2" value="Actor" style="shape=umlActor;verticalLabelPosition=bottom;labelBackgroundColor=#ffffff;verticalAlign=top;html=1;outlineConnect=0;" parent="1" vertex="1">
          <mxGeometry x="860" y="344.5" width="30" height="60" as="geometry" />
        </mxCell>
        <mxCell id="XbxrhhEBLyeG0NwSdQnV-2" style="edgeStyle=orthogonalEdgeStyle;curved=1;orthogonalLoop=1;jettySize=auto;html=1;exitX=1;exitY=0.3333333333333333;exitDx=0;exitDy=0;exitPerimeter=0;entryX=0;entryY=0.3333333333333333;entryDx=0;entryDy=0;entryPerimeter=0;startArrow=classic;startFill=1;" parent="1" source="XbxrhhEBLyeG0NwSdQnV-3" target="XbxrhhEBLyeG0NwSdQnV-5" edge="1">
          <mxGeometry relative="1" as="geometry" />
        </mxCell>
        <mxCell id="XbxrhhEBLyeG0NwSdQnV-3" value="Actor" style="shape=umlActor;verticalLabelPosition=bottom;labelBackgroundColor=#ffffff;verticalAlign=top;html=1;outlineConnect=0;" parent="1" vertex="1">
          <mxGeometry x="70" y="691.5" width="30" height="60" as="geometry" />
        </mxCell>
        <mxCell id="XbxrhhEBLyeG0NwSdQnV-4" style="edgeStyle=orthogonalEdgeStyle;orthogonalLoop=1;jettySize=auto;html=1;exitX=1;exitY=0.3333333333333333;exitDx=0;exitDy=0;exitPerimeter=0;startArrow=classic;startFill=1;curved=1;entryX=0;entryY=0.3333333333333333;entryDx=0;entryDy=0;entryPerimeter=0;" parent="1" source="XbxrhhEBLyeG0NwSdQnV-5" target="XbxrhhEBLyeG0NwSdQnV-9" edge="1">
          <mxGeometry relative="1" as="geometry">
            <mxPoint x="500" y="710" as="targetPoint" />
          </mxGeometry>
        </mxCell>
        <mxCell id="XbxrhhEBLyeG0NwSdQnV-5" value="Actor" style="shape=umlActor;verticalLabelPosition=bottom;labelBackgroundColor=#ffffff;verticalAlign=top;html=1;outlineConnect=0;" parent="1" vertex="1">
          <mxGeometry x="285" y="579" width="30" height="60" as="geometry" />
        </mxCell>
        <mxCell id="XbxrhhEBLyeG0NwSdQnV-8" style="edgeStyle=orthogonalEdgeStyle;curved=1;orthogonalLoop=1;jettySize=auto;html=1;exitX=1;exitY=0.3333333333333333;exitDx=0;exitDy=0;exitPerimeter=0;entryX=0;entryY=0.3333333333333333;entryDx=0;entryDy=0;entryPerimeter=0;startArrow=classic;startFill=1;" parent="1" source="XbxrhhEBLyeG0NwSdQnV-9" target="XbxrhhEBLyeG0NwSdQnV-20" edge="1">
          <mxGeometry relative="1" as="geometry" />
        </mxCell>
        <mxCell id="XbxrhhEBLyeG0NwSdQnV-9" value="Actor" style="shape=umlActor;verticalLabelPosition=bottom;labelBackgroundColor=#ffffff;verticalAlign=top;html=1;outlineConnect=0;" parent="1" vertex="1">
          <mxGeometry x="530" y="706" width="30" height="60" as="geometry" />
        </mxCell>
        <mxCell id="XbxrhhEBLyeG0NwSdQnV-10" value="任务机" style="text;html=1;align=center;verticalAlign=middle;resizable=0;points=[];autosize=1;" parent="1" vertex="1">
          <mxGeometry x="55" y="780.5" width="50" height="20" as="geometry" />
        </mxCell>
        <mxCell id="XbxrhhEBLyeG0NwSdQnV-11" value="中继机1" style="text;html=1;align=center;verticalAlign=middle;resizable=0;points=[];autosize=1;" parent="1" vertex="1">
          <mxGeometry x="270" y="556" width="60" height="20" as="geometry" />
        </mxCell>
        <mxCell id="XbxrhhEBLyeG0NwSdQnV-14" value="1440" style="text;html=1;align=center;verticalAlign=middle;resizable=0;points=[];autosize=1;" parent="1" vertex="1">
          <mxGeometry x="65" y="666" width="40" height="20" as="geometry" />
        </mxCell>
        <mxCell id="XbxrhhEBLyeG0NwSdQnV-15" value="80-100km" style="text;html=1;align=center;verticalAlign=middle;resizable=0;points=[];autosize=1;" parent="1" vertex="1">
          <mxGeometry x="140" y="616" width="70" height="20" as="geometry" />
        </mxCell>
        <mxCell id="XbxrhhEBLyeG0NwSdQnV-16" value="200km" style="text;html=1;align=center;verticalAlign=middle;resizable=0;points=[];autosize=1;" parent="1" vertex="1">
          <mxGeometry x="420" y="610" width="50" height="20" as="geometry" />
        </mxCell>
        <mxCell id="XbxrhhEBLyeG0NwSdQnV-17" value="1440，10W+1370 10W" style="text;html=1;align=center;verticalAlign=middle;resizable=0;points=[];autosize=1;" parent="1" vertex="1">
          <mxGeometry x="207" y="528" width="140" height="20" as="geometry" />
        </mxCell>
        <mxCell id="XbxrhhEBLyeG0NwSdQnV-20" value="Actor" style="shape=umlActor;verticalLabelPosition=bottom;labelBackgroundColor=#ffffff;verticalAlign=top;html=1;outlineConnect=0;" parent="1" vertex="1">
          <mxGeometry x="610" y="706" width="30" height="60" as="geometry" />
        </mxCell>
        <mxCell id="XbxrhhEBLyeG0NwSdQnV-22" value="3-3.5km" style="text;html=1;align=center;verticalAlign=middle;resizable=0;points=[];autosize=1;" parent="1" vertex="1">
          <mxGeometry x="265" y="501" width="60" height="20" as="geometry" />
        </mxCell>
        <mxCell id="XbxrhhEBLyeG0NwSdQnV-23" value="0-500m" style="text;html=1;align=center;verticalAlign=middle;resizable=0;points=[];autosize=1;" parent="1" vertex="1">
          <mxGeometry x="50" y="639" width="60" height="20" as="geometry" />
        </mxCell>
        <mxCell id="XbxrhhEBLyeG0NwSdQnV-24" value="1440MHz" style="text;html=1;align=center;verticalAlign=middle;resizable=0;points=[];autosize=1;" parent="1" vertex="1">
          <mxGeometry x="150" y="686" width="70" height="20" as="geometry" />
        </mxCell>
        <mxCell id="XbxrhhEBLyeG0NwSdQnV-25" value="1370MHz" style="text;html=1;align=center;verticalAlign=middle;resizable=0;points=[];autosize=1;" parent="1" vertex="1">
          <mxGeometry x="365" y="666" width="70" height="20" as="geometry" />
        </mxCell>
        <mxCell id="Nx7wkU47dPfWYU97phpq-1" value="主" style="text;html=1;align=center;verticalAlign=middle;resizable=0;points=[];autosize=1;" vertex="1" parent="1">
          <mxGeometry x="715" y="430" width="30" height="20" as="geometry" />
        </mxCell>
        <mxCell id="Nx7wkU47dPfWYU97phpq-2" value="备" style="text;html=1;align=center;verticalAlign=middle;resizable=0;points=[];autosize=1;" vertex="1" parent="1">
          <mxGeometry x="800" y="432" width="30" height="20" as="geometry" />
        </mxCell>
      </root>
    </mxGraphModel>
  </diagram>
</mxfile>
